<svg width="20" height="20" viewBox="0 0 20 20" fill="none" xmlns="http://www.w3.org/2000/svg">
<path fill-rule="evenodd" clip-rule="evenodd" d="M10 20C15.5228 20 20 15.5228 20 10C20 4.47717 15.5228 0 10 0C4.47717 0 0 4.47717 0 10C0 15.5228 4.47717 20 10 20ZM11.9711 4C12.9841 4.17548 13.9531 4.48364 14.8594 4.90765C16.4438 7.27393 17.2312 9.94281 16.9406 13.021C15.7281 13.9275 14.5521 14.4775 13.3959 14.8373C13.1096 14.4449 12.8563 14.0265 12.6372 13.5879C13.0546 13.4293 13.4553 13.2336 13.8341 13.0052C13.7351 12.931 13.6371 12.8535 13.5413 12.7736C11.2651 13.851 8.76233 13.851 6.45874 12.7736C6.40686 12.8173 6.354 12.8604 6.30029 12.9026C6.25598 12.9374 6.21106 12.9717 6.16577 13.0052C6.54346 13.2325 6.94324 13.4282 7.36047 13.5867C7.14136 14.0265 6.88708 14.4437 6.60181 14.8362C5.44678 14.4764 4.27185 13.9264 3.05945 13.021C2.81165 10.3657 3.30725 7.67206 5.13513 4.90985C6.04138 4.48474 7.01147 4.17548 8.02563 4C8.09827 4.13025 8.17871 4.2865 8.25305 4.44165C8.30701 4.5545 8.35779 4.66681 8.40002 4.76819C9.45715 4.6062 10.5242 4.6062 11.6011 4.76819C11.6565 4.63519 11.7256 4.48328 11.7974 4.33606C11.8555 4.21686 11.9154 4.10065 11.9711 4ZM6.41577 9.9563C6.41577 10.7424 6.98279 11.388 7.67432 11.388C8.37805 11.388 8.93408 10.7424 8.93298 9.9563C8.94507 9.16901 8.37805 8.52344 7.67432 8.52344C6.9707 8.52344 6.41577 9.17017 6.41577 9.9563ZM11.067 9.9563C11.067 10.7424 11.634 11.388 12.3256 11.388C13.0292 11.388 13.5842 10.7424 13.5842 9.9563C13.5963 9.16901 13.0292 8.52344 12.3256 8.52344C11.6219 8.52344 11.067 9.17017 11.067 9.9563Z" fill="#505050"/>
</svg>
